<svg width="261" height="261" viewBox="0 0 261 261" fill="none" xmlns="http://www.w3.org/2000/svg">
<circle cx="129.999" cy="130" r="99" fill="url(#paint0_linear)"/>
<g clip-path="url(#clip0)">
<path d="M194.055 130.363L181.616 123.182C181.619 116.036 180.016 108.972 176.885 102.491L186.967 99.7899C191.194 98.6572 193.694 94.3277 192.561 90.1001C191.428 85.8726 187.099 83.3729 182.871 84.5057L166.937 88.7754C164.212 86.1943 161.22 83.9172 157.852 81.973C154.485 80.0288 151.017 78.5764 147.488 77.5469L143.15 61.5725C142.017 57.345 137.688 54.8453 133.46 55.9781C129.232 57.1109 126.733 61.4404 127.866 65.6679L130.498 75.7094C123.389 76.2781 116.47 78.4225 110.283 81.9974L97.844 74.8159C94.0642 72.6337 89.1863 73.9407 87.0041 77.7205C84.8219 81.5002 86.1289 86.3781 89.9086 88.5604L97.3993 92.8851C95.7464 94.9546 94.1622 97.0637 92.8132 99.4002L88.8455 106.272L81.9733 102.305C78.1935 100.123 73.3156 101.43 71.1334 105.209C68.9511 108.989 70.2582 113.867 74.0379 116.049L80.9101 120.017L76.9424 126.889C75.5934 129.226 74.559 131.652 73.5933 134.118L66.1026 129.794C62.3228 127.611 57.4449 128.918 55.2627 132.698C53.0804 136.478 54.3875 141.356 58.1672 143.538L70.6059 150.72C70.6509 167.147 79.1134 183.12 94.3697 191.928C109.626 200.737 127.69 200.079 141.94 191.904L154.378 199.086C158.158 201.268 163.036 199.961 165.218 196.181C167.4 192.401 166.093 187.523 162.314 185.341L154.823 181.016C156.476 178.947 158.06 176.838 159.409 174.501L163.377 167.629L170.249 171.597C174.029 173.779 178.907 172.472 181.089 168.692C183.271 164.912 181.964 160.034 178.184 157.852L171.312 153.885L175.28 147.012C176.629 144.676 177.663 142.249 178.629 139.783L186.12 144.108C189.899 146.29 194.777 144.983 196.96 141.203C199.142 137.424 197.835 132.546 194.055 130.363ZM121.08 161.535L107.336 153.6C103.556 151.417 102.249 146.54 104.431 142.76C106.614 138.98 111.491 137.673 115.271 139.855L129.016 147.791C132.795 149.973 134.102 154.851 131.92 158.631C129.738 162.41 124.86 163.717 121.08 161.535ZM136.951 134.046L123.207 126.111C119.427 123.929 118.12 119.051 120.302 115.271C122.484 111.491 127.362 110.184 131.142 112.366L144.886 120.302C148.666 122.484 149.973 127.362 147.791 131.142C145.609 134.921 140.731 136.228 136.951 134.046Z" fill="white"/>
</g>
<defs>
<linearGradient id="paint0_linear" x1="70.9991" y1="56.5" x2="194.999" y2="244.5" gradientUnits="userSpaceOnUse">
<stop stop-color="#FF002E"/>
<stop offset="1" stop-color="#921515"/>
</linearGradient>
<clipPath id="clip0">
<rect width="190.448" height="190.448" fill="white" transform="translate(95.2242) rotate(30)"/>
</clipPath>
</defs>
</svg>
